<svg version="1" xmlns="http://www.w3.org/2000/svg" width="346.667" height="346.667" viewBox="0 0 260.000000 260.000000"><path d="M223 59.7c-14.6 2.2-29.1 12.5-38.6 27.4-3.3 5.1-3.9 5.6-4.9 4.1-1.6-2.4-2.5-6.1-1.5-6.7.4-.3.1-2.3-.7-4.6-1.6-4.9-1.3-8 1.6-13.7 1.2-2.3 1.7-4.2 1.3-4.2-1.1 0-5.6 5.8-5.7 7.4-.3 3.6-1.5 4.1-9.8 4.1-7.6 0-9 .3-15.9 3.8-8.1 4-12.5 8.4-14.6 14.6-1.5 4.2-1.6 12.8-.2 13.6.6.3 1 1.4 1 2.4 0 1.3-1 2-3.7 2.5-10.2 1.6-19.8 9-23.9 18.2-7.1 16.2 2.2 30.6 20.8 32.2 10.7.9 19.8-2.6 27.5-10.4 6.9-7.1 9-14.2 5.8-20.4-1-2-1.2-3.1-.4-3.5.6-.4 1.3-.5 1.5-.2.3.3 2.8-.1 5.7-.9 2.8-.7 5.2-1.2 5.3-1.1.1.1.4 1.8.7 3.7 2 12.9 7.6 21.2 16.3 24 5.1 1.7 15.8.7 21.9-2 5.8-2.6 19.5-11.8 19.5-13.1 0-.5.4-.9.9-.9 1.4 0-2.6 13.5-6.6 22.1-2.8 6.1-4.1 7.9-5.7 8-2.1.1-3.7.2-15.3 1.2-14.5 1.3-28.7 7.1-36.5 14.9-5.2 5.1-6.1 8.5-3.3 12.4 3.8 5.5 13 6.8 23.6 3.3 6-1.9 18.9-8.8 21.6-11.5.7-.7 2.3-2.1 3.5-3.1 1.3-1 4.7-4.6 7.7-8.1l5.4-6.2 8 .5c4.3.3 10 1 12.6 1.5 2.5.4 4.8.7 4.9.5 1.2-1.1-1.5-2.3-7.5-3.4-9.7-1.7-11.5-1.9-14.6-2l-2.8-.1 2.4-4.3c3-5.1 8.4-17.6 8.7-20.2 0-.3.7-2.3 1.5-4.5s1.2-4 .8-4c-.3 0-.1-.6.4-1.3 1.4-2 .6-8-1.3-9.4-2.6-1.9-5.3.2-8.9 6.9-3.6 6.7-5.7 9.2-11 12.7-8.5 5.8-18.7 8.2-26.3 6.2-4.8-1.3-9.6-6.5-11.8-12.6-1.7-4.7-2-15.5-.6-18.2.6-1 1.3-3.8 1.6-6.3.6-5 1.6-9 2.2-9 .3 0 2.7 1.1 5.4 2.5 13.3 6.7 32.8 6.7 46.1-.1 9.4-4.7 16.9-15.1 16.9-23.3 0-13.6-14.8-23.7-31-21.4zm17 5.8c8.6 4.4 11.1 11.9 7.1 21.1-5.5 12.4-22.7 20.6-40.2 19.1-7.5-.6-17.5-4.5-18.5-7.1-1.7-4.4 16.1-25.8 25.6-30.6 9.8-5 19.3-5.9 26-2.5zm-68.6 12.1c2.1 2 2.1 2.1-1.3 3.8-3.7 2-4.6 6.1-1.9 8.8 1.3 1.3 2.7 1.8 4.3 1.4 3.2-.8 6.9 4.1 5.9 7.8-.3 1.5-1 2.6-1.6 2.6-.5 0-.7.4-.4.9.3.5.1 2.2-.5 3.8-.9 2.8-1.5 6.1-1.8 10.5-.2 3.8-5.7 5.1-23.6 5.8-14.5.6-17.6 1-21.1 2.8-4.4 2.3-7.5 7.2-6.7 10.6.2 1.2.5 2.7.5 3.4.2 1.9 8.8 10.2 10.7 10.2.9 0-.1-1.6-2.7-4.2-6.4-6.2-5.7-12 1.9-15.8 7.6-3.9 18.1-2.9 22.2 2.2 4.9 6-2.6 19.2-13.8 24.4-14.3 6.7-27.1-1.7-26-17.1.8-11.7 7.3-22.6 16.1-26.5 2.3-1.1 4.5-2 4.8-2 .3 0 2.2 1.1 4.2 2.5 4.4 3 11.1 3.5 12.1.9 1.2-3.2-1.1-4.9-7.3-5.4l-5.9-.5v-5.1c.1-3.5.9-6.8 2.5-9.9 5.8-11.3 24.1-21.2 29.4-15.9zm-20.6 35.3c.4 1.1-.4 1.3-3.8.8-6.4-.8-7.7-2.9-1.6-2.5 3.1.2 5.1.8 5.4 1.7zm69.2 57.3c0 .9-5.5 7.4-9 10.6-9.5 8.8-23.4 15.2-33.2 15.2-5.5 0-9-2.5-8.1-5.9.8-3.2 8.6-9.8 15.3-13 9.7-4.7 13.2-5.7 24-6.7 3.6-.4 6.6-.7 6.7-.8.7-.5 4.3 0 4.3.6zM101.5 61.4c-1.6.8-3.8 2-4.9 2.8-1.4 1.1-3.1 1.3-7 .6-6.7-1.1-21.3-.9-30.1.4-22.9 3.2-41 13.7-45.1 26.1-1.7 5.2-1.5 12.3.6 16.7 2.6 5.9 12.9 9.5 20.1 7.1 6.2-2 11.8-9.4 11.9-15.4 0-2-1.7-.2-3.9 3.9-7.7 14.5-24.4 12.7-24.3-2.6.1-12 11.2-22.7 29.9-28.9 11-3.7 22.7-5 38-4.1l5.2.4-4.8 6c-6.8 8.6-12 17.4-23 39-9.8 19.2-11.1 21.6-13.3 25.1-2.8 4.3-12.9 13.3-17.2 15.3-8.8 4.2-17.3 3.4-19.8-1.8-1.9-3.9-1.3-7.2 1.9-10.6 2.3-2.5 2.9-2.6 8.6-2.1 5.9.5 6 .5 3.2-.8-6.9-3.2-17.2-1-19.9 4.4-4.1 7.7.1 14.6 9.9 16.6 15.7 3.1 29-4.5 43.1-24.7l5.9-8.3 5.5-.2c12.6-.5 22.9-3.4 31.7-9 6.8-4.2 10.3-7.6 14.6-14.1 8.9-13.1 4.2-25.8-12.1-33.5l-6.3-3 3.2-3.3c3.5-3.6 3.1-4.1-1.6-2zm3.1 11.2c7.3 3.4 10.6 7.9 11 14.9.7 12.3-11.2 26.5-27.2 32.4-6.5 2.5-18.1 4.7-19.1 3.7-.4-.4.3-2.6 1.5-4.9 1.3-2.3 6.1-11.4 10.6-20.2 12-23.1 15.1-28.4 16.9-28.5.5 0 3.3 1.2 6.3 2.6z"/></svg>